<?xml version="1.0" encoding="UTF-8" standalone="no"?>
<!-- Created with Inkscape (http://www.inkscape.org/) -->

<svg
   width="1920"
   height="1080"
   viewBox="0 0 507.99999 285.75001"
   version="1.1"
   id="svg5"
   inkscape:version="1.1.1 (c3084ef, 2021-09-22)"
   sodipodi:docname="bg.svg"
   xmlns:inkscape="http://www.inkscape.org/namespaces/inkscape"
   xmlns:sodipodi="http://sodipodi.sourceforge.net/DTD/sodipodi-0.dtd"
   xmlns="http://www.w3.org/2000/svg"
   xmlns:svg="http://www.w3.org/2000/svg">
  <sodipodi:namedview
     id="namedview7"
     pagecolor="#ffffff"
     bordercolor="#666666"
     borderopacity="1.0"
     inkscape:pageshadow="2"
     inkscape:pageopacity="0.0"
     inkscape:pagecheckerboard="0"
     inkscape:document-units="mm"
     showgrid="false"
     units="px"
     inkscape:zoom="0.31723122"
     inkscape:cx="1316.0748"
     inkscape:cy="463.38441"
     inkscape:window-width="1440"
     inkscape:window-height="872"
     inkscape:window-x="0"
     inkscape:window-y="0"
     inkscape:window-maximized="1"
     inkscape:current-layer="layer1" />
  <defs
     id="defs2" />
  <g
     inkscape:label="Layer 1"
     inkscape:groupmode="layer"
     id="layer1">
    <path
       style="fill:#fff7b3;fill-opacity:1;stroke-width:4;stroke-linecap:square"
       d="m 519.60655,-163.47173 c 0,0 -194.21841,-24.97254 -161.80365,-188.4929 16.90425,-85.2756 208.50984,-74.2295 13.34462,-193.49714 -53.11371,-32.45837 150.1271,-26.68926 150.1271,-26.68926 z"
       id="path2080"
       sodipodi:nodetypes="csscc" />
    <path
       style="fill:#bdf6ff;fill-opacity:0.41129;stroke-width:4;stroke-linecap:square"
       d="m 161.80365,-568.81487 c 0,0 -43.37005,126.77399 55.04659,175.14827 98.41665,48.37428 149.29306,-55.88064 201.83754,19.1829 52.54447,75.06355 107.59109,80.06778 132.61226,58.38276 25.02117,-21.68502 -8.34038,-213.51408 -8.34038,-213.51408 z"
       id="path857" />
    <path
       style="fill:#cc95ff;fill-opacity:0.455645;stroke-width:4;stroke-linecap:square"
       d="m -50.876402,-465.39398 c 0,0 93.412412,-37.53178 132.612259,125.1059 39.199863,162.63769 266.892613,177.65039 266.892613,177.65039 l -401.172951,33.36157 z"
       id="path4469" />
    <path
       style="fill:none;fill-opacity:0.455645;stroke:#000000;stroke-width:3.76137;stroke-linecap:square;stroke-opacity:0.298387"
       d="m 27.393902,-544.74883 c 0,0 100.178508,4.42083 52.593715,75.89097 -47.584789,71.47015 -61.776746,151.04515 69.290133,145.88751 131.06688,-5.15764 154.44187,155.46599 154.44187,155.46599"
       id="path6767" />
    <circle
       style="fill:#c6c8ff;fill-opacity:1;stroke:none;stroke-width:8;stroke-linecap:square;stroke-opacity:0.298387"
       id="path8339"
       cx="-509.59805"
       cy="-448.71323"
       r="105.08897" />
    <circle
       style="fill:#c6f6ff;fill-opacity:1;stroke:none;stroke-width:5.33333;stroke-linecap:square;stroke-opacity:0.298387"
       id="path8339-7"
       cx="-490.41516"
       cy="-232.69699"
       r="70.059311" />
    <circle
       style="fill:#e3cef0;fill-opacity:1;stroke:none;stroke-width:2.47619;stroke-linecap:square;stroke-opacity:0.298387"
       id="path8339-7-3"
       cx="-271.06281"
       cy="-231.02892"
       r="32.527538" />
    <circle
       style="fill:#fffa6b;fill-opacity:1;stroke:none;stroke-width:4;stroke-linecap:square;stroke-opacity:0.298387"
       id="path8339-0"
       cx="-113.42936"
       cy="-351.96463"
       r="52.544483" />
    <path
       style="fill:#6bb9ff;fill-opacity:1;stroke:none;stroke-width:4;stroke-linecap:square;stroke-opacity:0.298387"
       d="m -97.302032,103.92384 c 0,0 58.3827,-103.42088874 88.4080996,-52.544483 C 21.131568,102.25576 18.629368,149.796 51.990978,125.60886 c 33.36157,-24.18714 87.574142,36.69773 125.939952,82.5699 38.36581,45.87217 90.07625,147.62497 109.25916,201.00349 19.1829,53.37853 -326.109422,-95.08049 -326.109422,-95.08049 z"
       id="path10504"
       sodipodi:nodetypes="csssscc" />
    <path
       style="fill:#fffa6b;fill-opacity:1;stroke:none;stroke-width:4;stroke-linecap:square;stroke-opacity:0.298387"
       d="m 82.016398,-33.692664 c 0,0 81.735862,53.378521 60.884872,140.118614 -20.85098,86.7401 41.70197,-55.046593 89.24222,-46.706203 47.54025,8.3404 2.50211,190.160983 68.39122,115.931473 65.88911,-74.2295 55.88063,-169.3099937 109.25916,-127.608023 53.37852,41.70197 65.05508,-56.7146787 55.88066,-82.569901 -9.17446,-25.855221 -383.658132,0.83404 -383.658132,0.83404 z"
       id="path10506" />
    <path
       style="fill:#6bffa0;fill-opacity:1;stroke:none;stroke-width:4;stroke-linecap:square;stroke-opacity:0.298387"
       d="m 304.7049,403.34397 c 0,0 -102.20295,-50.7636 7.50637,-184.3227 19.18291,-23.3531 116.76552,25.02118 129.27611,-35.02965 12.51058,-60.05084 -18.34888,-118.433593 57.5487,-70.89335 75.89758,47.54025 50.04236,218.51832 50.04236,218.51832 z"
       id="path10508"
       sodipodi:nodetypes="cssscc" />
    <path
       sodipodi:type="star"
       style="fill:#6bb9ff;fill-opacity:1;stroke:none;stroke-width:15.1181;stroke-linecap:square;stroke-opacity:0.298387"
       id="path10960"
       inkscape:flatsided="true"
       sodipodi:sides="6"
       sodipodi:cx="-353.05478"
       sodipodi:cy="321.53204"
       sodipodi:r1="643.55835"
       sodipodi:r2="557.33789"
       sodipodi:arg1="0.96649082"
       sodipodi:arg2="1.4900896"
       inkscape:rounded="0"
       inkscape:randomized="0"
       d="m 12.609101,851.11421 -641.463551,51.88313 -365.66388,-529.58217 275.79967,-581.4653 641.463555,-51.88312 365.663875,529.58217 z"
       transform="matrix(0.20087288,0,0,0.20087288,-1194.1572,-552.98154)"
       inkscape:transform-center-y="-1.5381106e-06"
       inkscape:transform-center-x="-1.2401196e-06" />
    <path
       sodipodi:type="star"
       style="fill:#6bffa0;fill-opacity:1;stroke:none;stroke-width:15.1181;stroke-linecap:square;stroke-opacity:0.298387"
       id="path11064"
       inkscape:flatsided="true"
       sodipodi:sides="7"
       sodipodi:cx="1059.1644"
       sodipodi:cy="825.896"
       sodipodi:r1="463.97375"
       sodipodi:r2="401.81305"
       sodipodi:arg1="0.82384075"
       sodipodi:arg2="1.2726397"
       inkscape:rounded="0"
       inkscape:randomized="0"
       d="m 1374.3919,1166.3417 -384.8575,118.2735 -332.4247,-227.1514 -29.66928,-401.52669 295.4277,-273.54417 398.06158,60.42268 200.947,348.89001 z"
       transform="matrix(0.2169199,-0.15149289,0.15149289,0.2169199,-1348.0507,-322.28282)"
       inkscape:transform-center-x="2.8492308e-06"
       inkscape:transform-center-y="-1.1094092e-05" />
    <path
       sodipodi:type="star"
       style="fill:#fffa6b;fill-opacity:1;stroke:none;stroke-width:15.1181;stroke-linecap:square;stroke-opacity:0.298387"
       id="path11064-6"
       inkscape:flatsided="true"
       sodipodi:sides="5"
       sodipodi:cx="1059.1644"
       sodipodi:cy="825.896"
       sodipodi:r1="463.97375"
       sodipodi:r2="401.81305"
       sodipodi:arg1="0.82384075"
       sodipodi:arg2="1.4521593"
       inkscape:rounded="0"
       inkscape:randomized="0"
       transform="matrix(0.21135341,0.14108498,-0.14108498,0.21135341,-974.4289,-850.79423)"
       d="M 1374.3919,1166.3417 832.79199,1230.8987 604.03107,735.75572 1004.249,365.18357 1480.3582,631.30034 Z"
       inkscape:transform-center-x="-4.8757241e-06"
       inkscape:transform-center-y="2.2417898e-06" />
    <path
       sodipodi:type="star"
       style="fill:#a86bff;fill-opacity:0.342742;stroke:none;stroke-width:15.1181;stroke-linecap:square;stroke-opacity:0.298387"
       id="path11064-6-2"
       inkscape:flatsided="true"
       sodipodi:sides="5"
       sodipodi:cx="1059.1644"
       sodipodi:cy="825.896"
       sodipodi:r1="463.97375"
       sodipodi:r2="401.81305"
       sodipodi:arg1="0.82384075"
       sodipodi:arg2="1.4521593"
       inkscape:rounded="0"
       inkscape:randomized="0"
       transform="matrix(0.15643091,0.1044225,-0.1044225,0.15643091,-1255.5843,-632.47973)"
       inkscape:transform-center-x="-6.7227229e-06"
       inkscape:transform-center-y="5.246911e-06"
       d="M 1374.3919,1166.3417 832.79199,1230.8987 604.03107,735.75572 1004.249,365.18357 1480.3582,631.30034 Z" />
    <path
       sodipodi:type="star"
       style="fill:#6bfeff;fill-opacity:0.342742;stroke:none;stroke-width:15.1181;stroke-linecap:square;stroke-opacity:0.298387"
       id="path11064-6-2-7"
       inkscape:flatsided="true"
       sodipodi:sides="6"
       sodipodi:cx="1059.1644"
       sodipodi:cy="825.896"
       sodipodi:r1="463.97375"
       sodipodi:r2="401.81305"
       sodipodi:arg1="0.82384075"
       sodipodi:arg2="1.3474395"
       inkscape:rounded="0"
       inkscape:randomized="0"
       transform="matrix(0.15643091,0.1044225,-0.1044225,0.15643091,-899.16986,-545.6522)"
       inkscape:transform-center-x="-6.7227229e-06"
       inkscape:transform-center-y="5.246911e-06"
       d="M 1374.3919,1166.3417 921.94356,1269.1139 606.71606,928.66817 743.93693,485.4503 1196.3853,382.67813 1511.6128,723.12382 Z" />
  </g>
</svg>
